<?xml version="1.0" encoding="utf-8"?>
<!-- Generator: Adobe Illustrator 19.0.0, SVG Export Plug-In . SVG Version: 6.00 Build 0)  -->
<svg version="1.2" baseProfile="tiny" xmlns="http://www.w3.org/2000/svg" xmlns:xlink="http://www.w3.org/1999/xlink" x="0px"
	 y="0px" viewBox="0 0 512 512" xml:space="preserve">
<g id="Layer_1">
	<circle id="outer_circle" fill="#FFFFFF" stroke="#000000" stroke-miterlimit="10" cx="256" cy="256.2" r="253.4"/>
	<linearGradient id="inner_circle_1_" gradientUnits="userSpaceOnUse" x1="256.2851" y1="6.8719" x2="256.2851" y2="505.5413">
		<stop  offset="0" style="stop-color:#23C7F9"/>
		<stop  offset="1" style="stop-color:#0085BE"/>
	</linearGradient>
	<circle id="inner_circle" fill="url(#inner_circle_1_)" cx="256.3" cy="256.2" r="249.3"/>
</g>
<g id="Layer_2">
	<path id="XMLID_2_" fill="#FFFFFF" d="M287.6,290c-13.4,13.4-27.3,22.1-41.7,25.9c-14.4,3.8-27.7,3.1-39.9-2.3L98.2,433.9
		c-2.2,2.6-5,3.9-8.5,4s-6.3-1.1-8.7-3.5l-26.7-26.7c-2.4-2.4-3.6-5.3-3.5-8.7c0.1-3.4,1.4-6.2,4-8.5l120.2-107.7
		c-5.4-12.2-6.1-25.5-2.3-39.9c3.8-14.4,12.5-28.3,25.9-41.7c11.8-11.8,25.4-21.4,40.5-28.7s29.9-11.1,44.1-11.5
		c14.2-0.3,25.2,3.4,33.1,11.3c7.9,7.9,11.6,18.9,11.3,33.1s-4.1,28.9-11.5,44.1C309,264.6,299.5,278.2,287.6,290z"/>
</g>
<g id="Layer_3" display="none">
	<circle id="XMLID_1_" display="inline" fill="#FF0000" cx="256" cy="256" r="15"/>
</g>
</svg>
